<svg id="10015.io" viewBox="0 0 1200 630" xmlns="http://www.w3.org/2000/svg"><defs><pattern id="svg-pattern" x="0" y="0" width="76" height="76" patternUnits="userSpaceOnUse" patternTransform="translate(47, 47) rotate(0) skewX(0)"><svg width="29" height="29" viewBox="0 0 100 100"><g fill="#000000" opacity="0.2"><path d="M71.3058 79.9997C87.3957 79.9994 99.9994 67.0415 100 50.4997C99.9997 42.3235 96.9315 34.7618 91.361 29.2085C86.0516 23.9155 78.929 21 71.3055 21C61.9311 21.0003 54.8861 26.4722 49.9869 32.4468C49.1265 31.3963 48.2032 30.3625 47.2121 29.3745C41.7167 23.8959 35.3132 21 28.6942 21C12.604 21 0 33.9582 0 50.5C0.000288454 58.6762 3.06796 66.2379 8.63876 71.7915C13.9481 77.0845 21.0708 80 28.6942 80C38.0683 80 45.1136 74.5278 50.0126 68.5529C50.8729 69.6034 51.7962 70.6372 52.7873 71.6252C58.2828 77.1038 64.6862 79.9997 71.3058 79.9997ZM28.6945 61.689C25.2118 61.6893 22.9288 60.1419 21.6269 58.844C19.5252 56.7488 18.3679 53.7858 18.3679 50.5C18.3679 44.0164 22.7107 39.3107 28.6945 39.311C30.3598 39.311 32.2204 40.3241 34.2246 42.322C36.6365 44.7265 38.6265 47.9948 39.9273 50.5144C37.3306 55.5291 32.806 61.689 28.6945 61.689ZM60.0675 50.4761C62.6347 45.5224 67.1957 39.3107 71.3055 39.3107C74.7882 39.3104 77.0714 40.8581 78.3731 42.1557C80.4748 44.2509 81.6324 47.2142 81.6321 50.4997C81.6321 56.9833 77.2888 61.689 71.3053 61.689C69.64 61.689 67.7793 60.6759 65.7749 58.6777C63.3597 56.27 61.368 52.9966 60.0675 50.4761Z"></path></g></svg></pattern></defs><rect x="0" y="0" width="100%" height="100%" fill="#1e90ff"></rect><rect x="0" y="0" width="100%" height="100%" fill="url(#svg-pattern)"></rect></svg>